<svg id="Layer_1" enable-background="new 0 0 500 500" viewBox="0 0 500 500" xmlns="http://www.w3.org/2000/svg"><g><path d="m406.938 475h-277.012c-13.946 0-25.294-11.345-25.294-25.294v-365.863c0-13.946 11.348-25.294 25.294-25.294h277.012c13.947 0 25.294 11.348 25.294 25.294v365.863c.001 13.949-11.347 25.294-25.294 25.294zm-277.012-401.572c-5.742 0-10.415 4.673-10.415 10.415v365.863c0 5.742 4.672 10.416 10.415 10.416h277.012c5.742 0 10.415-4.673 10.415-10.416v-365.863c0-5.742-4.673-10.415-10.415-10.415z"/><path d="m112.072 441.454h-1.156c-23.791 0-43.148-19.355-43.148-43.149v-129.59c0-4.109 3.33-7.439 7.439-7.439 4.11 0 7.44 3.33 7.44 7.439v129.59c0 13.432 9.412 24.702 21.987 27.566v-342.028c0-13.946 11.348-25.294 25.294-25.294h248.847c-3.94-10.926-14.407-18.671-26.555-18.671h-241.304c-15.588 0-28.269 12.682-28.269 28.269v151.949c0 4.11-3.33 7.44-7.44 7.44-4.109 0-7.439-3.33-7.439-7.44v-151.948c-.001-23.791 19.356-43.148 43.148-43.148h241.303c22.765 0 41.663 17.808 43.026 40.544.125 2.046-.605 4.054-2.008 5.545-1.407 1.493-3.366 2.339-5.417 2.339h-257.894c-5.742 0-10.415 4.673-10.415 10.415v350.171c.001 4.109-3.33 7.44-7.439 7.44z"/><path d="m190.147 191.529c-24.738 0-44.862-20.125-44.862-44.863 0-24.739 20.124-44.863 44.862-44.863 24.739 0 44.866 20.124 44.866 44.863 0 24.738-20.126 44.863-44.866 44.863zm0-74.848c-16.532 0-29.983 13.452-29.983 29.984s13.451 29.984 29.983 29.984c16.536 0 29.988-13.452 29.988-29.984s-13.452-29.984-29.988-29.984z"/><path d="m190.147 311.636c-4.109 0-7.439-3.33-7.439-7.439 0-4.11 3.33-7.44 7.439-7.44 16.536 0 29.988-13.449 29.988-29.984 0-16.536-13.452-29.984-29.988-29.984-16.532 0-29.983 13.449-29.983 29.984 0 6.69 2.153 13.019 6.227 18.296 2.508 3.255 1.907 7.921-1.346 10.432-3.249 2.517-7.921 1.918-10.436-1.342-6.099-7.905-9.325-17.372-9.325-27.386 0-24.736 20.124-44.863 44.862-44.863 24.739 0 44.866 20.127 44.866 44.863s-20.125 44.863-44.865 44.863z"/><path d="m190.147 431.747c-24.738 0-44.862-20.126-44.862-44.862s20.124-44.863 44.862-44.863c24.739 0 44.866 20.127 44.866 44.863s-20.126 44.862-44.866 44.862zm0-74.847c-16.532 0-29.983 13.449-29.983 29.984s13.451 29.984 29.983 29.984c16.536 0 29.988-13.45 29.988-29.984 0-16.535-13.452-29.984-29.988-29.984z"/><path d="m384.095 191.529h-34.492c-4.11 0-7.44-3.331-7.44-7.44s3.33-7.439 7.44-7.439h34.492c4.109 0 7.439 3.33 7.439 7.439s-3.33 7.44-7.439 7.44z"/><path d="m310.223 191.529h-53.482c-4.109 0-7.439-3.331-7.439-7.44s3.33-7.439 7.439-7.439h53.482c4.11 0 7.44 3.33 7.44 7.439s-3.33 7.44-7.44 7.44z"/><path d="m384.095 154.105h-98.866c-4.11 0-7.44-3.33-7.44-7.439s3.33-7.439 7.44-7.439h98.866c4.109 0 7.439 3.33 7.439 7.439 0 4.108-3.33 7.439-7.439 7.439z"/><path d="m384.095 311.636h-127.353c-4.109 0-7.439-3.33-7.439-7.439 0-4.11 3.33-7.44 7.439-7.44h127.353c4.109 0 7.439 3.33 7.439 7.44 0 4.109-3.33 7.439-7.439 7.439z"/><path d="m384.095 274.213h-98.866c-4.11 0-7.44-3.33-7.44-7.439 0-4.11 3.33-7.44 7.44-7.44h98.866c4.109 0 7.439 3.33 7.439 7.44 0 4.109-3.33 7.439-7.439 7.439z"/><path d="m384.095 431.747h-127.353c-4.109 0-7.439-3.33-7.439-7.439s3.33-7.439 7.439-7.439h127.353c4.109 0 7.439 3.33 7.439 7.439s-3.33 7.439-7.439 7.439z"/><path d="m384.095 394.324h-98.866c-4.11 0-7.44-3.33-7.44-7.439 0-4.11 3.33-7.44 7.44-7.44h98.866c4.109 0 7.439 3.33 7.439 7.44 0 4.108-3.33 7.439-7.439 7.439z"/></g></svg>