<svg enable-background="new 0 0 512 512" viewBox="0 0 512 512" xmlns="http://www.w3.org/2000/svg"><g id="_x30_8_Upload"><g><path d="m53.888 354.984h207.193c3.552 0 6.431-2.879 6.431-6.431s-2.879-6.431-6.431-6.431h-207.193c-18.355 0-33.287-14.933-33.287-33.287v-204.62c0-18.357 14.933-33.29 33.287-33.29h312.052c18.355 0 33.287 14.933 33.287 33.29v107.12c0 3.552 2.879 6.431 6.431 6.431s6.431-2.879 6.431-6.431v-107.12c0-25.449-20.703-46.153-46.15-46.153h-312.051c-25.447 0-46.15 20.703-46.15 46.153v204.62c0 25.445 20.703 46.149 46.15 46.149z"/><path d="m276.849 198.691c.309 6.586-2.676 12.76-8.026 16.567l-95.699 67.71c-5.865 4.168-13.429 4.682-19.808 1.389-6.38-3.293-10.342-9.776-10.342-16.928v-121.783c0-6.895 3.55-13.017 9.467-16.516 5.968-3.447 13.068-3.499 19.037-.103l95.699 54.023c5.71 3.242 9.312 9.056 9.672 15.641z"/><path d="m392.253 229.922c-61.741 0-112.009 50.268-112.009 112.009s50.268 112.008 112.009 112.008 112.009-50.267 112.009-112.008-50.267-112.009-112.009-112.009zm0 211.155c-54.692 0-99.146-44.505-99.146-99.146s44.454-99.146 99.146-99.146c54.641 0 99.146 44.505 99.146 99.146s-44.505 99.146-99.146 99.146z"/><path d="m447.1 331.795-39.308-57.625c-3.55-5.145-9.313-8.232-15.538-8.232s-12.04 3.087-15.538 8.232l-39.36 57.625c-3.499 5.145-3.91 11.782-.978 17.287 2.933 5.557 8.592 8.952 14.818 8.952h5.608v40.801c0 10.496 8.541 19.088 19.088 19.088h32.723c10.496 0 19.088-8.592 19.088-19.088v-40.801h5.556c6.226 0 11.937-3.396 14.818-8.952 2.933-5.505 2.573-12.142-.977-17.287zm-10.393 11.319c-.309.617-1.286 2.058-3.447 2.058h-11.988c-3.55 0-6.431 2.882-6.431 6.431v47.232c0 3.396-2.83 6.225-6.226 6.225h-32.723c-3.447 0-6.226-2.83-6.226-6.225v-47.232c0-3.55-2.881-6.431-6.431-6.431h-12.039c-2.11 0-3.087-1.44-3.447-2.058-.309-.669-.978-2.315.258-4.065l39.308-57.625c1.132-1.698 2.933-2.624 4.939-2.624 2.007 0 3.756.926 4.888 2.624l39.36 57.625c1.183 1.75.565 3.396.205 4.065z"/></g></g><g id="Layer_1"/></svg>